<svg width="16" height="16" viewBox="0 0 16 16" fill="none" xmlns="http://www.w3.org/2000/svg">
<path d="M8.00002 9.33334C8.35364 9.33334 8.69278 9.19286 8.94283 8.94281C9.19288 8.69277 9.33335 8.35363 9.33335 8.00001C9.33335 7.64638 9.19288 7.30724 8.94283 7.0572C8.69278 6.80715 8.35364 6.66667 8.00002 6.66667C7.6464 6.66667 7.30726 6.80715 7.05721 7.0572C6.80716 7.30724 6.66669 7.64638 6.66669 8.00001C6.66669 8.35363 6.80716 8.69277 7.05721 8.94281C7.30726 9.19286 7.6464 9.33334 8.00002 9.33334Z" stroke="white" stroke-linecap="round" stroke-linejoin="round"/>
<path d="M14 8C12.7407 9.994 10.4787 12 8 12C5.52133 12 3.25933 9.994 2 8C3.53267 6.10533 5.328 4 8 4C10.672 4 12.4673 6.10533 14 8Z" stroke="white" stroke-linecap="round" stroke-linejoin="round"/>
</svg>
